<mxfile host="app.diagrams.net" modified="2022-05-27T13:33:08.173Z" agent="5.0 (Macintosh; Intel Mac OS X 10_15_7) AppleWebKit/537.36 (KHTML, like Gecko) Chrome/101.0.4951.64 Safari/537.36" etag="1g91pb4Y7SOFW4hb69GZ" version="18.1.3" type="github">
  <diagram id="VqEWtw8ykpLOxfL0Jpxg" name="Page-1">
    <mxGraphModel dx="1666" dy="769" grid="1" gridSize="10" guides="1" tooltips="1" connect="1" arrows="1" fold="1" page="1" pageScale="1" pageWidth="850" pageHeight="1100" math="0" shadow="0">
      <root>
        <mxCell id="0" />
        <mxCell id="1" parent="0" />
        <mxCell id="mB33y_r5mQssguBAfcBG-3" value="" style="verticalLabelPosition=bottom;verticalAlign=top;html=1;shape=mxgraph.basic.arc;startAngle=0.9968173254495136;endAngle=0.5830525051072626;" parent="1" vertex="1">
          <mxGeometry x="370" y="40" width="260" height="200" as="geometry" />
        </mxCell>
        <mxCell id="mB33y_r5mQssguBAfcBG-1" value="" style="endArrow=none;html=1;" parent="1" edge="1">
          <mxGeometry width="50" height="50" relative="1" as="geometry">
            <mxPoint x="320" y="330" as="sourcePoint" />
            <mxPoint x="470" y="40" as="targetPoint" />
          </mxGeometry>
        </mxCell>
        <mxCell id="mB33y_r5mQssguBAfcBG-2" value="" style="verticalLabelPosition=bottom;verticalAlign=top;html=1;shape=mxgraph.basic.arc;startAngle=0.02568364651545348;endAngle=0.5830525051072626;" parent="1" vertex="1">
          <mxGeometry x="415" y="95" width="170" height="100" as="geometry" />
        </mxCell>
        <mxCell id="mB33y_r5mQssguBAfcBG-4" value="" style="endArrow=none;html=1;" parent="1" edge="1">
          <mxGeometry width="50" height="50" relative="1" as="geometry">
            <mxPoint x="370" y="360" as="sourcePoint" />
            <mxPoint x="440" y="220" as="targetPoint" />
          </mxGeometry>
        </mxCell>
        <mxCell id="mB33y_r5mQssguBAfcBG-6" value="" style="endArrow=none;html=1;" parent="1" edge="1">
          <mxGeometry width="50" height="50" relative="1" as="geometry">
            <mxPoint x="370" y="360" as="sourcePoint" />
            <mxPoint x="320" y="330" as="targetPoint" />
          </mxGeometry>
        </mxCell>
        <mxCell id="mB33y_r5mQssguBAfcBG-7" value="" style="endArrow=none;html=1;" parent="1" edge="1">
          <mxGeometry width="50" height="50" relative="1" as="geometry">
            <mxPoint x="519" y="290" as="sourcePoint" />
            <mxPoint x="599" y="290" as="targetPoint" />
          </mxGeometry>
        </mxCell>
        <mxCell id="mB33y_r5mQssguBAfcBG-8" value="" style="endArrow=none;html=1;" parent="1" edge="1">
          <mxGeometry width="50" height="50" relative="1" as="geometry">
            <mxPoint x="559" y="360" as="sourcePoint" />
            <mxPoint x="519" y="290" as="targetPoint" />
          </mxGeometry>
        </mxCell>
        <mxCell id="mB33y_r5mQssguBAfcBG-9" value="" style="endArrow=none;html=1;" parent="1" edge="1">
          <mxGeometry width="50" height="50" relative="1" as="geometry">
            <mxPoint x="559" y="360" as="sourcePoint" />
            <mxPoint x="639" y="360" as="targetPoint" />
          </mxGeometry>
        </mxCell>
        <mxCell id="mB33y_r5mQssguBAfcBG-11" value="" style="endArrow=none;html=1;" parent="1" edge="1">
          <mxGeometry width="50" height="50" relative="1" as="geometry">
            <mxPoint x="639" y="360" as="sourcePoint" />
            <mxPoint x="599" y="290" as="targetPoint" />
          </mxGeometry>
        </mxCell>
        <mxCell id="mB33y_r5mQssguBAfcBG-13" value="" style="endArrow=none;html=1;" parent="1" edge="1">
          <mxGeometry width="50" height="50" relative="1" as="geometry">
            <mxPoint x="460" y="175" as="sourcePoint" />
            <mxPoint x="500" y="100" as="targetPoint" />
          </mxGeometry>
        </mxCell>
      </root>
    </mxGraphModel>
  </diagram>
</mxfile>
